<svg width="40" height="50" xmlns="http://www.w3.org/2000/svg" xmlns:svg="http://www.w3.org/2000/svg">
 <g>
  <title>Layer 1</title>
  <g id="svg_17"/>
  <g id="svg_18"/>
  <g id="svg_19"/>
  <g id="svg_20"/>
  <g id="svg_21"/>
  <g id="svg_22"/>
  <g id="svg_23"/>
  <g id="svg_24"/>
  <g id="svg_25"/>
  <g id="svg_26"/>
  <g id="svg_27"/>
  <g id="svg_28"/>
  <g id="svg_29"/>
  <g id="svg_30"/>
  <g id="svg_31"/>
  <rect id="svg_34" height="0" width="0.6993" y="148.13988" x="130.65737" stroke-linecap="null" stroke-linejoin="null" stroke-dasharray="null" stroke-width="null" fill="#54D195"/>
  <g stroke="null" id="svg_35">
   <polygon stroke="null" id="svg_1" fill="#C99363" points="23.15947743330571,43.284963808365205 23.15947743330571,32.232747270059576 17.296775194762517,32.232747270059576 17.296775194762517,43.284963808365205 15.900893647679482,48.95568674640697 24.555358980388746,48.95568674640697 "/>
   <polygon stroke="null" id="svg_2" fill="#BA7F4F" points="23.15947743330571,43.284963808365205 23.15947743330571,32.232747270059576 21.236789102208604,32.232747270059576 21.236789102208604,43.284963808365205 21.717063304451358,48.95568674640697 24.555358980388746,48.95568674640697 "/>
   <path stroke="null" id="svg_3" fill="#54D195" d="m32.72285,15.67741c0.00568,-0.15522 0.00959,-0.311 0.00959,-0.46762c0,-6.90598 -5.59832,-12.50431 -12.50431,-12.50431s-12.50431,5.59842 -12.50431,12.50431c0,0.15662 0.00391,0.3124 0.00959,0.46762c-3.33141,1.15449 -5.72358,4.3196 -5.72358,8.04381l0,0c0,4.70077 3.81076,8.51143 8.51143,8.51143l19.41373,0c4.70077,0 8.51143,-3.81076 8.51143,-8.51143l0,0c0,-3.72421 -2.39208,-6.88933 -5.72358,-8.04381z"/>
   <path stroke="null" id="svg_4" fill="#39B375" d="m32.72294,15.67741c0.00568,-0.15522 0.00959,-0.311 0.00959,-0.46762c-0.00009,-6.90598 -5.59842,-12.50431 -12.5044,-12.50431c5.82929,0 10.55482,5.59842 10.55482,12.50431c0,0.15662 -0.00326,0.3124 -0.0081,0.46762c2.81205,1.15449 4.83124,4.3196 4.83124,8.04381l0,0c0,4.70077 -3.21658,8.51143 -7.18451,8.51143l1.51332,0c4.70077,0 8.51143,-3.81076 8.51143,-8.51143l0,0c0.00009,-3.72421 -2.39198,-6.88933 -5.72339,-8.04381z"/>
   <g stroke="null" id="svg_5">
    <circle stroke="null" id="svg_6" fill="#FF5F5F" r="2.32647" cy="24.07736" cx="29.27623"/>
    <circle stroke="null" id="svg_7" fill="#FF5F5F" r="2.32647" cy="16.33394" cx="15.1406"/>
    <circle stroke="null" id="svg_8" fill="#FF5F5F" r="2.32647" cy="25.78592" cx="12.81413"/>
    <circle stroke="null" id="svg_9" fill="#FF5F5F" r="2.32647" cy="9.80121" cx="24.0333"/>
   </g>
   <path stroke="null" id="svg_10" d="m20.27465,36.5315l0,-1.39588c0,-0.38554 -0.3124,-0.69794 -0.69794,-0.69794s-0.69794,0.3124 -0.69794,0.69794l0,1.39588c0,0.38554 0.3124,0.69794 0.69794,0.69794s0.69794,-0.3124 0.69794,-0.69794z"/>
   <path stroke="null" id="svg_11" d="m20.69342,43.41785c0.38554,0 0.69794,-0.3124 0.69794,-0.69794l0,-1.39588c0,-0.38554 -0.3124,-0.69794 -0.69794,-0.69794s-0.69794,0.3124 -0.69794,0.69794l0,1.39588c0,0.38554 0.3124,0.69794 0.69794,0.69794z"/>
   <path stroke="null" id="svg_13" d="m29.27604,27.1013c1.66771,0 3.02441,-1.3567 3.02441,-3.02441s-1.3567,-3.02441 -3.02441,-3.02441s-3.02441,1.3567 -3.02441,3.02441s1.3567,3.02441 3.02441,3.02441zm0,-4.65294c0.89802,0 1.62853,0.73051 1.62853,1.62853c0,0.89792 -0.73051,1.62853 -1.62853,1.62853c-0.89792,0 -1.62853,-0.7306 -1.62853,-1.62853s0.73051,-1.62853 1.62853,-1.62853z"/>
   <path stroke="null" id="svg_14" d="m15.14079,19.35863c1.66771,0 3.02441,-1.3567 3.02441,-3.02441s-1.3567,-3.02441 -3.02441,-3.02441s-3.02441,1.3567 -3.02441,3.02441s1.3568,3.02441 3.02441,3.02441zm0,-4.65294c0.89792,0 1.62853,0.7306 1.62853,1.62853s-0.7306,1.62853 -1.62853,1.62853s-1.62853,-0.7306 -1.62853,-1.62853s0.7307,-1.62853 1.62853,-1.62853z"/>
   <path stroke="null" id="svg_15" d="m9.78991,25.78573c0,1.66771 1.3567,3.02441 3.02441,3.02441s3.02441,-1.3567 3.02441,-3.02441s-1.3567,-3.02441 -3.02441,-3.02441s-3.02441,1.3568 -3.02441,3.02441zm3.02441,-1.62853c0.89792,0 1.62853,0.7306 1.62853,1.62853c0,0.89802 -0.7306,1.62853 -1.62853,1.62853s-1.62853,-0.73051 -1.62853,-1.62853c0,-0.89792 0.7307,-1.62853 1.62853,-1.62853z" fill="black"/>
   <path stroke="null" id="svg_16" d="m24.03376,6.77634c-1.66771,0 -3.02441,1.3567 -3.02441,3.02441s1.3567,3.02441 3.02441,3.02441s3.02441,-1.3567 3.02441,-3.02441s-1.3568,-3.02441 -3.02441,-3.02441zm0,4.65294c-0.89792,0 -1.62853,-0.7306 -1.62853,-1.62853s0.7306,-1.62853 1.62853,-1.62853s1.62853,0.7306 1.62853,1.62853s-0.7306,1.62853 -1.62853,1.62853z"/>
  </g>
 </g>
</svg>